<?xml version="1.0" encoding="UTF-8"?>
<svg id="Layer_1" data-name="Layer 1" xmlns="http://www.w3.org/2000/svg" viewBox="0 0 111.83 74.55">
  <defs>
    <style>
      .cls-1 {
        fill: #989898;
      }

      .cls-2 {
        stroke: #010101;
        stroke-miterlimit: 10;
      }
    </style>
  </defs>
  <path class="cls-1" d="m2.22,62.94c2.79-4.29,8.67-1.81,12.72-1.3,13.1,2.73,26.35,2,39.47-.46,17.36-2.72,37.07-2.68,52.94,5.67-12.51-4.61-26.13-5.22-39.31-4.3-6.66.38-13.2,1.67-19.81,2.59-11.18,1.58-22.77,1.08-33.63-2.07-3.96-.82-9.15-3.85-12.38-.13h0Z"/>
  <path class="cls-2" d="m22.08,3.51c1.24,2.81,3.61,4.16,6.05,5.37,3.63,1.8,3.63,1.63,7.74.87,6.63-1.24,13.31-1.88,20.07-1.4,4.51.32,8.93,1.08,13.21,2.59,2.69.95,5.2.32,7.72-.56,2.51-.87,4.55-2.38,5.9-4.89.8,2.56-.95,6.3-3.42,7.42-1.58.72-3.25.94-4.96.86-.37-.02-.72-.17-.97-.43-1.47-1.48-3.15-1.28-4.9-.82-4.25,1.11-7.44,3.78-9.95,7.42-.81,1.17-1.49,2.43-2.23,3.64-.74-1.42-1.46-2.9-2.26-4.33-2.56-4.56-6.2-7.64-11.17-8.98-2.2-.59-4.29-.19-6.39.42-.98.29-1.96.62-2.93.93,3.29,1.54,6.62,3.1,9.94,4.65.02,0,0,.03,0,.03-1.52-.25-3.03-.51-4.55-.76-3.56-.59-7.13-1.17-10.54-2.46-2.85-1.08-5.23-2.75-6.12-6-.3-1.11-.38-2.29-.57-3.49l.06-.8.27.7Z"/>
  <path class="cls-2" d="m22.06,54.53c-.96-6.19-1.23-12.43-.64-18.65.52-5.55,1.58-11.01,4.13-16.01.5-.97,1.23-1.82,1.88-2.75-.99-.22-2.29.57-3.18-.61,1.04-1.15,3.31-.93,5.25-.15-.39.49-.81,1.04-1.26,1.57-1.81,2.16-2.86,4.75-3.69,7.44-1.88,6.09-2.45,12.37-2.22,18.72.14,3.97.55,7.92.83,11.88.04.64-.1,1.95-.17,1.96-.08.01-.75-2.25-.93-3.4Z"/>
  <path class="cls-2" d="m81.51,52.12c.55-8.81.6-17.57-2.08-26.1-1.01-3.19-2.3-6.22-4.72-8.57,1.25-.72,3.36-.5,4.86.52-.74,1.32-1.8.41-2.72.37,3.24,4.24,4.37,9.28,5.25,14.39,1,5.87.91,11.79.48,17.7-.15,2.08-1.13,6.19-1.19,6.18s.03-3,.13-4.5Z"/>
  <path class="cls-2" d="m53.99,34.67s0,0,.01,0c1.18-1.29,3.43-3.75,3.75-4.11,0,0,.02,0,.02.01-.24.65-2.59,6.92-3.8,10.16,0,0-.01,0-.02,0-1.23-3.39-2.46-6.77-3.68-10.16-.02-.05.04-.08.07-.04.66.74,1.33,1.47,1.98,2.22.56.64,1.11,1.28,1.66,1.92Z"/>
  <path class="cls-2" d="m58.58,65.41c-.65-1.07-.72-2.46-.35-3.31,1-.1,1.88-.19,2.75-.26.16-.01.35,0,.47.08.54.43.86,2.59.5,3.35-.67-.87-1.34-1.73-2.15-2.78-.46,1.1-.84,1.98-1.23,2.92Z"/>
  <path class="cls-2" d="m43.42,63.23c1.1.02,2,.02,2.9.07.19.01.52.22.52.34,0,1.01-.08,2.03-.13,3.04l-.33.04c-.4-.92-.8-1.84-1.27-2.92-.69,1-1.3,1.87-1.96,2.82-.55-1.34-.11-2.47.27-3.39Z"/>
  <circle class="cls-2" cx="61.82" cy="32.36" r="1.63"/>
  <circle class="cls-2" cx="45.91" cy="32.41" r="1.68"/>
</svg>